<svg xmlns="http://www.w3.org/2000/svg" width="1600" height="900" viewBox="0 0 1600 900">
  <rect width="1600" height="900" fill="#090D1A"/>
  <text x="96" y="118" fill="#AAB4D6" font-family="Pretendard, Apple SD Gothic Neo, sans-serif" font-size="24">AHEYA / Signal Review &amp; Outreach</text>
  <text x="96" y="188" fill="#F7ECDD" font-family="Pretendard, Apple SD Gothic Neo, sans-serif" font-size="56" font-weight="700">확인된 것과 확인하지 않은 것을 분리한다</text>
  <text x="98" y="238" fill="#C3A88B" font-family="Pretendard, Apple SD Gothic Neo, sans-serif" font-size="25">public X evidence + Grok/Liya pattern + private DM boundary</text>
  <g font-family="Pretendard, Apple SD Gothic Neo, sans-serif">
    <rect x="96" y="318" width="330" height="260" rx="24" fill="#121A2F" stroke="#57D6FF"/>
    <rect x="454" y="318" width="330" height="260" rx="24" fill="#121A2F" stroke="#62D8B6"/>
    <rect x="812" y="318" width="330" height="260" rx="24" fill="#121A2F" stroke="#F4C558"/>
    <rect x="1170" y="318" width="330" height="260" rx="24" fill="#121A2F" stroke="#8B5CF6"/>
    <text x="128" y="376" fill="#F7ECDD" font-size="29" font-weight="700">Public reply</text>
    <text x="486" y="376" fill="#F7ECDD" font-size="29" font-weight="700">Direct onboarding</text>
    <text x="844" y="376" fill="#F7ECDD" font-size="29" font-weight="700">21-day listing</text>
    <text x="1202" y="376" fill="#F7ECDD" font-size="29" font-weight="700">Question-led</text>
    <text x="128" y="442" fill="#AAB4D6" font-size="22">observable detail</text>
    <text x="128" y="484" fill="#AAB4D6" font-size="22">light bridge only</text>
    <text x="486" y="442" fill="#AAB4D6" font-size="22">warm target</text>
    <text x="486" y="484" fill="#AAB4D6" font-size="22">clear product surface</text>
    <text x="844" y="442" fill="#AAB4D6" font-size="22">low-friction offer</text>
    <text x="844" y="484" fill="#AAB4D6" font-size="22">run loop for 21 days</text>
    <text x="1202" y="442" fill="#AAB4D6" font-size="22">moderate warmth</text>
    <text x="1202" y="484" fill="#AAB4D6" font-size="22">do not assume pain</text>
  </g>
  <rect x="96" y="650" width="1408" height="110" rx="22" fill="#0B1020" stroke="#263653"/>
  <text x="128" y="710" fill="#AAB4D6" font-family="Pretendard, Apple SD Gothic Neo, sans-serif" font-size="23">Allowed: pattern examples. Not allowed: DM text, handles, exact private response, external result.</text>
</svg>
